<?xml version="1.0" encoding="utf-8"?>
<!-- Svg Vector Icons : http://www.onlinewebfonts.com/icon -->
<!DOCTYPE svg PUBLIC "-//W3C//DTD SVG 1.1//EN" "http://www.w3.org/Graphics/SVG/1.1/DTD/svg11.dtd">
<svg version="1.1" xmlns="http://www.w3.org/2000/svg" xmlns:xlink="http://www.w3.org/1999/xlink" x="0px" y="0px" viewBox="0 0 1000 1000" enable-background="new 0 0 1000 1000" xml:space="preserve">
<metadata> Svg Vector Icons : http://www.onlinewebfonts.com/icon </metadata>
<g><g transform="translate(0.000000,511.000000) scale(0.100000,-0.100000)"><path d="M433.5,4175.4c-142.1-70-214.1-146.2-284.1-296.5L100,3776V801v-2975l49.4-102.9c70-150.3,142.1-226.5,284.1-296.5l125.6-63.8h1383.5h1383.5l41.2,144.1l43.2,144.1l-844.1,4.1l-844.1,6.2l-55.6,179.1c-102.9,317-280,580.6-522.9,780.3c-152.4,123.5-450.9,273.8-621.8,312.9l-123.5,28.8V811.3v1846.8l135.9,37.1c543.5,140,971.8,553.8,1140.6,1101.5l45.3,144.1h3298.2h3298.2l61.8-185.3c86.5-259.4,201.8-444.7,397.4-640.3c195.6-193.5,387.1-312.9,642.3-397.3l183.3-61.8V811.3v-1844.7l-183.3-61.8c-201.8-68-317-127.6-485.9-257.4c-273.8-205.9-483.8-522.9-578.5-862.7l-32.9-123.5l-912.1-6.2c-714.4-4.1-907.9-10.3-899.7-30.9c4.1-12.4,26.8-78.2,47.4-142.1l37.1-119.4h1422.6h1424.7l125.6,63.8c142.1,70,214.1,146.2,284.1,296.5L9900-2174V801v2975l-49.4,102.9c-70,150.3-142,226.5-284.1,296.5l-125.6,63.8H5000H559.1L433.5,4175.4z"/><path d="M2405.9,2818.7v-144.1h2604.4h2604.4v144.1v144.1H5010.3H2405.9V2818.7z"/><path d="M2405.9,1892.2v-144.1h2604.4h2604.4v144.1v144.1H5010.3H2405.9V1892.2z"/><path d="M4633.5,1087.2c-86.5-156.5-109.1-183.2-160.6-195.6c-30.9-8.2-82.4-4.1-115.3,8.2c-197.6,82.4-181.2,80.3-224.4,26.8c-20.6-26.8-39.1-80.3-39.1-119.4c0-154.4-67.9-212.1-242.9-207.9c-152.4,4.1-177.1-16.5-156.5-137.9c37.1-220.3,6.2-277.9-168.8-329.4c-152.3-43.2-164.7-102.9-47.3-255.3c76.2-96.7,39.1-207.9-94.7-290.3c-102.9-63.8-100.9-144.1,8.2-222.3c140-96.8,156.5-179.1,63.8-315c-32.9-49.4-61.8-107.1-61.8-125.6c0-37.1,74.1-98.8,119.4-98.8c57.7,0,164.7-65.9,187.4-115.3c18.5-41.2,18.5-82.4-2.1-172.9c-32.9-164.7-12.3-187.3,162.7-181.2c123.5,6.2,135.9,2.1,183.2-51.5c35-41.2,49.4-82.3,49.4-140c0-45.3,10.3-100.9,20.6-123.5c26.8-47.4,111.2-51.5,185.3-8.2c28.8,16.5,84.4,28.8,127.7,30.9c82.4,0,150.3-61.8,199.7-181.2c45.3-107.1,125.6-102.9,236.8,14.4c84.4,88.5,191.5,88.5,273.8,0c113.2-121.5,207.9-119.4,251.2,6.2c51.5,148.2,183.2,203.8,310.9,129.7c74.1-43.2,158.5-39.1,185.3,8.2c10.3,22.6,20.6,74.1,20.6,115.3c0,148.2,88.5,220.3,253.2,201.8c133.8-16.5,166.8,14.4,148.2,137.9c-24.7,156.5-18.5,205.9,30.9,257.4c24.7,26.8,76.2,55.6,111.2,61.8c88.5,18.5,156.5,65.9,156.5,109.1c0,18.5-28.8,76.2-61.8,125.6c-88.5,131.7-82.4,172.9,51.5,300.6c61.8,59.7,113.2,121.5,113.2,133.8s-24.7,43.2-53.5,67.9C6457.6-286,6441.2-230.4,6546.2-88.4c90.6,123.5,74.1,179.1-72.1,220.3c-177.1,51.5-201.8,98.8-166.8,331.5c18.5,129.7,4.1,142.1-166.8,135.9c-119.4-4.1-129.7-2.1-181.2,57.6c-37.1,45.3-53.5,88.5-53.5,144.1c0,45.3-16.5,96.8-39.1,125.6c-43.2,53.5-24.7,55.6-228.5-26.8c-96.8-39.1-164.7-4.1-236.8,127.7c-82.3,148.2-125.6,154.4-247.1,43.2c-121.5-113.2-187.4-113.2-306.8-2.1C4738.5,1169.5,4680.9,1173.7,4633.5,1087.2z M5339.7,510.7c253.2-78.2,490-277.9,623.8-527.1c282.1-531.2,63.8-1212.6-475.6-1474.1c-201.8-98.8-333.5-125.6-547.7-113.2c-399.4,24.7-728.8,240.9-905.9,597.1C3785.3-512.5,3939.7,76.3,4394.7,381C4680.9,568.4,5006.2,613.7,5339.7,510.7z"/><path d="M4860,90.7c-70-142.1-133.8-257.4-142.1-257.4c-10.3,0-131.8-18.5-273.8-41.2c-142.1-22.6-265.6-41.2-277.9-41.2c-10.3,0,76.2-96.8,193.5-214.1l212.1-214.1l-49.4-290.3l-51.5-290.3l265.6,137.9l267.6,137.9l267.6-142.1c205.9-107.1,265.6-129.7,255.3-100.9c-6.2,22.7-30.9,154.4-53.5,294.4l-43.2,257.4l210,210l210,212.1l-70,10.3c-39.1,8.2-166.8,26.8-284.1,43.2c-117.3,18.5-218.2,35-226.5,39.1c-6.2,4.1-67.9,121.5-135.9,257.3c-65.9,137.9-127.7,249.1-133.8,249.1S4932.1,232.8,4860,90.7z"/><path d="M3902.7-1854.9c-18.5-45.3-590.9-1861.2-590.9-1877.6c0-8.2,135.9,57.6,300.6,142.1c238.8,123.5,304.7,150.3,319.1,127.6c10.3-16.5,84.4-152.4,166.8-302.6c90.6-164.7,154.4-261.5,162.6-247.1c18.5,35,512.6,1597.6,512.6,1622.3c0,12.3-30.9,20.6-65.9,20.6c-98.8,0-189.4,65.9-240.9,172.9l-47.4,94.7l-78.2-41.2c-195.6-100.9-382.9,2.1-411.8,226.5C3921.2-1863.1,3910.9-1836.3,3902.7-1854.9z"/><path d="M6025.3-2062.8c-37.1-63.8-146.2-121.5-226.5-121.5c-26.8,0-86.5,18.5-133.8,39.1l-86.5,41.2l-45.3-94.7c-24.7-51.5-74.1-109.1-109.1-131.7c-70-43.3-197.6-51.5-261.5-18.5c-20.6,12.3-39.1,16.5-39.1,10.3c0-10.3,504.4-1616.2,527.1-1677.9c6.2-18.5,70,61.8,177.1,226.5c90.6,142.1,166.8,259.4,168.8,261.5c2.1,2.1,137.9-45.3,300.6-105c164.7-61.8,300.6-109.1,304.7-105c2.1,2.1-115.3,389.1-263.5,856.5c-148.2,469.4-271.8,858.5-273.8,866.8C6062.3-2007.2,6043.8-2027.8,6025.3-2062.8z"/></g></g>
</svg>